<mxfile host="app.diagrams.net" agent="Mozilla/5.0 (Macintosh; Intel Mac OS X 10_15_7) AppleWebKit/537.36 (KHTML, like Gecko) Chrome/138.0.0.0 Safari/537.36" version="28.0.7">
  <diagram name="Page-1" id="v2mDaXg3x-pYdF2RZADQ">
    <mxGraphModel dx="1634" dy="1237" grid="0" gridSize="10" guides="1" tooltips="1" connect="1" arrows="1" fold="1" page="0" pageScale="1" pageWidth="850" pageHeight="1100" math="0" shadow="0">
      <root>
        <mxCell id="0" />
        <mxCell id="1" parent="0" />
        <mxCell id="CdMpTlR5mjF_lNp4O5YN-23" value="" style="group" vertex="1" connectable="0" parent="1">
          <mxGeometry width="144.66107318554577" height="146.66107318554577" as="geometry" />
        </mxCell>
        <mxCell id="CdMpTlR5mjF_lNp4O5YN-1" value="" style="triangle;whiteSpace=wrap;html=1;rotation=75;fillColor=#d5e8d4;strokeColor=#82b366;strokeWidth=3;rounded=1;shadow=1;" vertex="1" parent="CdMpTlR5mjF_lNp4O5YN-23">
          <mxGeometry x="32.33053659277288" y="-0.6694634072271199" width="60" height="80" as="geometry" />
        </mxCell>
        <mxCell id="CdMpTlR5mjF_lNp4O5YN-2" value="" style="triangle;whiteSpace=wrap;html=1;rotation=165;fillColor=#d5e8d4;strokeColor=#82b366;strokeWidth=4;rounded=1;shadow=1;" vertex="1" parent="CdMpTlR5mjF_lNp4O5YN-23">
          <mxGeometry x="75.33053659277289" y="23.33053659277288" width="60" height="80" as="geometry" />
        </mxCell>
        <mxCell id="CdMpTlR5mjF_lNp4O5YN-3" value="" style="triangle;whiteSpace=wrap;html=1;rotation=-105;fillColor=#dae8fc;strokeColor=#6C8EBF;strokeWidth=3;rounded=1;shadow=1;" vertex="1" parent="CdMpTlR5mjF_lNp4O5YN-23">
          <mxGeometry x="51.33053659277288" y="67.33053659277289" width="60" height="80" as="geometry" />
        </mxCell>
        <mxCell id="CdMpTlR5mjF_lNp4O5YN-4" value="" style="triangle;whiteSpace=wrap;html=1;rotation=-15;fillColor=#dae8fc;strokeColor=#6C8EBF;strokeWidth=3;rounded=1;shadow=1;" vertex="1" parent="CdMpTlR5mjF_lNp4O5YN-23">
          <mxGeometry x="9.33053659277288" y="42.33053659277288" width="60" height="80" as="geometry" />
        </mxCell>
      </root>
    </mxGraphModel>
  </diagram>
</mxfile>
